<?xml version="1.0" standalone="no"?>
<!DOCTYPE svg PUBLIC "-//W3C//DTD SVG 20010904//EN"
 "http://www.w3.org/TR/2001/REC-SVG-20010904/DTD/svg10.dtd">
<svg version="1.0" xmlns="http://www.w3.org/2000/svg"
 width="400.000000pt" height="400.000000pt" viewBox="0 0 400.000000 400.000000"
 preserveAspectRatio="xMidYMid meet">
<metadata>
Created by potrace 1.11, written by Peter Selinger 2001-2013
</metadata>
<g transform="translate(0.000000,400.000000) scale(0.100000,-0.100000)"
fill="#000000" stroke="none">
<path d="M934 3577 l-421 -422 0 -1578 -1 -1578 762 2 c418 1 790 5 826 9 36
4 92 11 125 15 33 3 103 15 155 26 52 11 106 22 120 25 68 14 246 80 335 125
374 189 582 481 639 897 12 85 14 347 3 412 -68 403 -250 653 -606 830 -118
58 -317 124 -441 146 -25 4 -47 8 -50 9 -14 3 -90 16 -125 20 -22 3 -53 8 -70
10 -81 11 -226 18 -372 19 -90 1 -164 3 -164 6 -1 3 -2 124 -3 270 l-1 265
699 0 700 0 7 35 c4 19 10 58 13 85 11 98 27 220 31 245 2 14 7 48 10 75 11
95 15 127 19 154 3 14 12 80 21 146 8 66 17 132 19 148 l4 27 -906 -1 -907 0
-421 -422z m1044 -1916 c255 -47 361 -149 368 -356 4 -100 -9 -158 -50 -228
-74 -126 -225 -183 -508 -192 -76 -3 -139 -1 -139 3 -3 17 -5 778 -2 784 5 10
260 1 331 -11z"/>
</g>
</svg>
